<?xml version="1.0" encoding="UTF-8"?>
<svg width="641px" height="560px" viewBox="0 0 641 560" version="1.1" xmlns="http://www.w3.org/2000/svg" xmlns:xlink="http://www.w3.org/1999/xlink">
    <!-- Generator: Sketch 60.1 (88133) - https://sketch.com -->
    <title>chart-layout-grid</title>
    <desc>Created with Sketch.</desc>
    <g id="chart-layout-grid" stroke="none" stroke-width="1" fill="none" fill-rule="evenodd">
        <rect fill="#FFFFFF" x="0" y="0" width="641" height="560"></rect>
        <g id="Chart" transform="translate(23.000000, 23.000000)">
            <rect id="Rectangle" stroke="#CCCCCC" stroke-width="1" fill="#FFFFFF" fill-rule="evenodd" x="0.5" y="0.5" width="519" height="449"></rect>
            <rect id="Rectangle" fill="#11C591" fill-rule="evenodd" x="105" y="293" width="20" height="67"></rect>
            <g id="Group" stroke-width="1" fill-rule="evenodd" transform="translate(165.000000, 34.000000)">
                <g id="Group-4">
                    <rect id="Rectangle" fill="#11C591" x="0" y="4" width="8" height="8"></rect>
                    <text id="Series-1" font-family="OpenSans-Regular, Open Sans" font-size="11" font-weight="normal" fill="#000000">
                        <tspan x="12" y="12">Series 1</tspan>
                    </text>
                </g>
                <g id="Group-3" transform="translate(69.000000, 0.000000)">
                    <rect id="Rectangle" fill="#181DA1" x="0" y="4" width="8" height="8"></rect>
                    <text id="Series-2" font-family="OpenSans-Regular, Open Sans" font-size="11" font-weight="normal" fill="#000000">
                        <tspan x="12" y="12">Series 2</tspan>
                    </text>
                </g>
                <g id="Group-2" transform="translate(138.000000, 0.000000)">
                    <rect id="Rectangle" fill="#ED4DAF" x="0" y="4" width="8" height="8"></rect>
                    <text id="Series-3" font-family="OpenSans-Regular, Open Sans" font-size="11" font-weight="normal" fill="#000000">
                        <tspan x="12" y="12">Series 3</tspan>
                    </text>
                </g>
            </g>
            <rect id="Rectangle" fill="#663399" fill-rule="evenodd" x="129" y="261" width="20" height="99"></rect>
            <rect id="Rectangle" fill="#ED4DAF" fill-rule="evenodd" x="153" y="318" width="20" height="42"></rect>
            <rect id="Rectangle" fill="#11C591" fill-rule="evenodd" x="205" y="239" width="20" height="121"></rect>
            <rect id="Rectangle" fill="#663399" fill-rule="evenodd" x="229" y="250" width="20" height="110"></rect>
            <rect id="Rectangle" fill="#ED4DAF" fill-rule="evenodd" x="253" y="305" width="20" height="55"></rect>
            <rect id="Rectangle" fill="#11C591" fill-rule="evenodd" x="305" y="141" width="20" height="219"></rect>
            <rect id="Rectangle" fill="#663399" fill-rule="evenodd" x="329" y="210" width="20" height="150"></rect>
            <rect id="Rectangle" fill="#ED4DAF" fill-rule="evenodd" x="353" y="261" width="20" height="99"></rect>
            <rect id="Rectangle" fill="#11C591" fill-rule="evenodd" x="405" y="293" width="20" height="67"></rect>
            <rect id="Rectangle" fill="#663399" fill-rule="evenodd" x="429" y="124" width="20" height="236"></rect>
            <rect id="Rectangle" fill="#ED4DAF" fill-rule="evenodd" x="453" y="89" width="20" height="271"></rect>
            <text id="0" font-family="OpenSans-Regular, Open Sans" font-size="11" font-weight="normal" fill="#000000">
                <tspan x="72.7104492" y="365">0</tspan>
            </text>
            <text id="1,000" font-family="OpenSans-Regular, Open Sans" font-size="11" font-weight="normal" fill="#000000">
                <tspan x="51.1455078" y="305">1,000</tspan>
            </text>
            <text id="2,000" font-family="OpenSans-Regular, Open Sans" font-size="11" font-weight="normal" fill="#000000">
                <tspan x="51.1455078" y="244">2,000</tspan>
            </text>
            <text id="3,000" font-family="OpenSans-Regular, Open Sans" font-size="11" font-weight="normal" fill="#000000">
                <tspan x="51.1455078" y="184">3,000</tspan>
            </text>
            <text id="Y-Axis-Title" transform="translate(24.500000, 211.000000) rotate(-90.000000) translate(-24.500000, -211.000000) " font-family="OpenSans-Bold, Open Sans" font-size="10" font-weight="bold" fill="#000000">
                <tspan x="-2.64111328" y="215">Y Axis Title</tspan>
            </text>
            <text id="X-Axis-Title" transform="translate(289.500000, 429.000000) rotate(-360.000000) translate(-289.500000, -429.000000) " font-family="OpenSans-Bold, Open Sans" font-size="10" font-weight="bold" fill="#000000">
                <tspan x="262.144043" y="433">X Axis Title</tspan>
            </text>
            <text id="Chart-Title" font-family="OpenSans-Bold, Open Sans" font-size="10" font-weight="bold" fill="#000000">
                <tspan x="233.696289" y="24">Chart Title</tspan>
            </text>
            <text id="4,000" font-family="OpenSans-Regular, Open Sans" font-size="11" font-weight="normal" fill="#000000">
                <tspan x="51.1455078" y="124">4,000</tspan>
            </text>
            <text id="5,000" font-family="OpenSans-Regular, Open Sans" font-size="11" font-weight="normal" fill="#000000">
                <tspan x="51.1455078" y="64">5,000</tspan>
            </text>
            <text id="Category-A" transform="translate(123.500000, 387.000000) rotate(-45.000000) translate(-123.500000, -387.000000) " font-family="OpenSans-Regular, Open Sans" font-size="10" font-weight="normal" fill="#000000">
                <tspan x="98.4238281" y="391">Category A</tspan>
            </text>
            <text id="Category-B" transform="translate(223.500000, 387.000000) rotate(-45.000000) translate(-223.500000, -387.000000) " font-family="OpenSans-Regular, Open Sans" font-size="10" font-weight="normal" fill="#000000">
                <tspan x="198.272461" y="391">Category B</tspan>
            </text>
            <text id="Category-C" transform="translate(323.500000, 387.000000) rotate(-45.000000) translate(-323.500000, -387.000000) " font-family="OpenSans-Regular, Open Sans" font-size="10" font-weight="normal" fill="#000000">
                <tspan x="298.443359" y="391">Category C</tspan>
            </text>
            <text id="Category-D" transform="translate(423.146447, 387.353553) rotate(-45.000000) translate(-423.146447, -387.353553) " font-family="OpenSans-Regular, Open Sans" font-size="10" font-weight="normal" fill="#000000">
                <tspan x="397.608361" y="391.353553">Category D</tspan>
            </text>
            <line x1="88.5" y1="60" x2="88.5" y2="360" id="Line" stroke="#000000" stroke-width="1" stroke-linecap="square"></line>
            <line x1="89" y1="360.5" x2="489" y2="360.5" id="Line-2" stroke="#000000" stroke-width="1" stroke-linecap="square"></line>
            <line x1="84" y1="59.5" x2="89" y2="59.5" id="Line-3" stroke="#000000" stroke-width="1" stroke-linecap="square"></line>
            <line x1="84" y1="119.5" x2="89" y2="119.5" id="Line-3" stroke="#000000" stroke-width="1" stroke-linecap="square"></line>
            <line x1="84" y1="179.5" x2="89" y2="179.5" id="Line-3" stroke="#000000" stroke-width="1" stroke-linecap="square"></line>
            <line x1="84" y1="240.5" x2="89" y2="240.5" id="Line-3" stroke="#000000" stroke-width="1" stroke-linecap="square"></line>
            <line x1="84" y1="300.5" x2="89" y2="300.5" id="Line-3" stroke="#000000" stroke-width="1" stroke-linecap="square"></line>
            <line x1="84" y1="360.5" x2="89" y2="360.5" id="Line-3" stroke="#000000" stroke-width="1" stroke-linecap="square"></line>
            <line x1="88.5" y1="361" x2="88.5" y2="366" id="Line-4" stroke="#000000" stroke-width="1" stroke-linecap="square"></line>
            <line x1="188.5" y1="361" x2="188.5" y2="366" id="Line-4" stroke="#000000" stroke-width="1" stroke-linecap="square"></line>
            <line x1="288.5" y1="361" x2="288.5" y2="366" id="Line-4" stroke="#000000" stroke-width="1" stroke-linecap="square"></line>
            <line x1="388.5" y1="361" x2="388.5" y2="366" id="Line-4" stroke="#000000" stroke-width="1" stroke-linecap="square"></line>
            <line x1="489.5" y1="361" x2="489.5" y2="366" id="Line-4" stroke="#000000" stroke-width="1" stroke-linecap="square"></line>
        </g>
        <text id="y-axis-label" transform="translate(22.000000, 507.500000) rotate(-90.000000) translate(-22.000000, -507.500000) " font-family="SourceSansPro-Regular, Source Sans Pro" font-size="12" font-weight="normal" fill="#000000">
            <tspan x="-6.54" y="512">y-axis-label</tspan>
        </text>
        <text id="y-axis" transform="translate(60.000000, 493.000000) rotate(-90.000000) translate(-60.000000, -493.000000) " font-family="SourceSansPro-Regular, Source Sans Pro" font-size="12" font-weight="normal" fill="#000000">
            <tspan x="45.688" y="497.5">y-axis</tspan>
        </text>
        <text id="cols-start" transform="translate(109.000000, 502.000000) rotate(-90.000000) translate(-109.000000, -502.000000) " font-family="SourceSansPro-Regular, Source Sans Pro" font-size="12" font-weight="normal" fill="#000000">
            <tspan x="85.604" y="506.5">cols-start</tspan>
        </text>
        <text id="col-start" transform="translate(209.000000, 499.500000) rotate(-90.000000) translate(-209.000000, -499.500000) " font-family="SourceSansPro-Regular, Source Sans Pro" font-size="12" font-weight="normal" fill="#000000">
            <tspan x="188.252" y="504">col-start</tspan>
        </text>
        <text id="col-start" transform="translate(309.000000, 499.500000) rotate(-90.000000) translate(-309.000000, -499.500000) " font-family="SourceSansPro-Regular, Source Sans Pro" font-size="12" font-weight="normal" fill="#000000">
            <tspan x="288.252" y="504">col-start</tspan>
        </text>
        <text id="col-start" transform="translate(409.000000, 499.500000) rotate(-90.000000) translate(-409.000000, -499.500000) " font-family="SourceSansPro-Regular, Source Sans Pro" font-size="12" font-weight="normal" fill="#000000">
            <tspan x="388.252" y="504">col-start</tspan>
        </text>
        <text id="cols-end" transform="translate(509.000000, 500.000000) rotate(-90.000000) translate(-509.000000, -500.000000) " font-family="SourceSansPro-Regular, Source Sans Pro" font-size="12" font-weight="normal" fill="#000000">
            <tspan x="487.66" y="504.5">cols-end</tspan>
        </text>
        <g id="Group" transform="translate(23.000000, 23.000000)" fill="#FFFFFF" fill-opacity="0.837958916" stroke="#FF0000" stroke-width="2">
            <rect id="Rectangle" x="39" y="1" width="49" height="448"></rect>
            <rect id="Rectangle" x="1" y="1" width="38" height="448"></rect>
            <rect id="Rectangle" x="88" y="418" width="401" height="31"></rect>
            <rect id="Rectangle" x="88" y="59" width="100" height="302"></rect>
            <rect id="Rectangle" x="188" y="59" width="100" height="302"></rect>
            <rect id="Rectangle" x="288" y="59" width="100" height="302"></rect>
            <rect id="Rectangle" x="388" y="59" width="101" height="302"></rect>
            <rect id="Rectangle" x="88" y="361" width="100" height="57"></rect>
            <rect id="Rectangle" x="188" y="361" width="100" height="57"></rect>
            <rect id="Rectangle" x="288" y="361" width="100" height="57"></rect>
            <rect id="Rectangle" x="388" y="361" width="101" height="57"></rect>
            <rect id="Rectangle" x="489" y="1" width="30" height="448"></rect>
            <rect id="Rectangle" x="88" y="1" width="401" height="29"></rect>
            <rect id="Rectangle" x="88" y="30" width="401" height="29"></rect>
        </g>
        <g id="Group-3" transform="translate(23.500000, 24.500000)" stroke="#FF0000" stroke-linecap="square" stroke-width="2">
            <line x1="0.5" y1="28.5" x2="518.5" y2="28.5" id="Line" opacity="0.304013207"></line>
            <line x1="0.5" y1="57.5" x2="518.5" y2="57.5" id="Line" opacity="0.304013207"></line>
            <line x1="0" y1="359.5" x2="519" y2="359.5" id="Line" opacity="0.304013207"></line>
            <line x1="0.5" y1="416.5" x2="518.5" y2="416.5" id="Line" opacity="0.304013207"></line>
            <line x1="187.5" y1="1.35395167e-15" x2="187.5" y2="447" id="Line-2" opacity="0.303687686"></line>
            <line x1="287.5" y1="1.35395167e-15" x2="287.5" y2="447" id="Line-2" opacity="0.303687686"></line>
            <line x1="387.5" y1="1.35395167e-15" x2="387.5" y2="447" id="Line-2" opacity="0.303687686"></line>
        </g>
        <text id="title" font-family="SourceSansPro-Regular, Source Sans Pro" font-size="12" font-weight="normal" fill="#000000">
            <tspan x="548.924" y="27">title</tspan>
        </text>
        <text id="legend" font-family="SourceSansPro-Regular, Source Sans Pro" font-size="12" font-weight="normal" fill="#000000">
            <tspan x="548" y="55">legend</tspan>
        </text>
        <text id="data" font-family="SourceSansPro-Regular, Source Sans Pro" font-size="12" font-weight="normal" fill="#000000">
            <tspan x="548" y="85">data</tspan>
        </text>
        <text id="x-axis" font-family="SourceSansPro-Regular, Source Sans Pro" font-size="12" font-weight="normal" fill="#000000">
            <tspan x="548" y="386">x-axis</tspan>
        </text>
        <text id="x-axis-label" font-family="SourceSansPro-Regular, Source Sans Pro" font-size="12" font-weight="normal" fill="#000000">
            <tspan x="548" y="444">x-axis-label</tspan>
        </text>
        <polygon id="Triangle" fill="#000000" transform="translate(170.000000, 483.000000) rotate(-270.000000) translate(-170.000000, -483.000000) " points="170 479 174 487 166 487"></polygon>
        <polygon id="Triangle" fill="#000000" transform="translate(150.000000, 483.000000) rotate(-90.000000) translate(-150.000000, -483.000000) " points="150 479 154 487 146 487"></polygon>
        <line x1="165.5" y1="483" x2="154.5" y2="483" id="Line-3" stroke="#000000" stroke-width="2" stroke-linecap="square"></line>
        <polygon id="Triangle" fill="#000000" transform="translate(270.000000, 482.000000) rotate(-270.000000) translate(-270.000000, -482.000000) " points="270 478 274 486 266 486"></polygon>
        <polygon id="Triangle" fill="#000000" transform="translate(250.000000, 482.000000) rotate(-90.000000) translate(-250.000000, -482.000000) " points="250 478 254 486 246 486"></polygon>
        <line x1="265.5" y1="482" x2="254.5" y2="482" id="Line-3" stroke="#000000" stroke-width="2" stroke-linecap="square"></line>
        <polygon id="Triangle" fill="#000000" transform="translate(370.000000, 482.000000) rotate(-270.000000) translate(-370.000000, -482.000000) " points="370 478 374 486 366 486"></polygon>
        <polygon id="Triangle" fill="#000000" transform="translate(350.000000, 482.000000) rotate(-90.000000) translate(-350.000000, -482.000000) " points="350 478 354 486 346 486"></polygon>
        <line x1="365.5" y1="482" x2="354.5" y2="482" id="Line-3" stroke="#000000" stroke-width="2" stroke-linecap="square"></line>
        <polygon id="Triangle" fill="#000000" transform="translate(470.000000, 482.000000) rotate(-270.000000) translate(-470.000000, -482.000000) " points="470 478 474 486 466 486"></polygon>
        <polygon id="Triangle" fill="#000000" transform="translate(450.000000, 482.000000) rotate(-90.000000) translate(-450.000000, -482.000000) " points="450 478 454 486 446 486"></polygon>
        <line x1="465.5" y1="482" x2="454.5" y2="482" id="Line-3" stroke="#000000" stroke-width="2" stroke-linecap="square"></line>
        <g id="Group-2" transform="translate(555.000000, 221.000000) rotate(-90.000000) translate(-555.000000, -221.000000) translate(541.000000, 217.000000)">
            <polygon id="Triangle" fill="#000000" transform="translate(24.000000, 4.000000) rotate(-270.000000) translate(-24.000000, -4.000000) " points="24 0 28 8 20 8"></polygon>
            <polygon id="Triangle" fill="#000000" transform="translate(4.000000, 4.000000) rotate(-90.000000) translate(-4.000000, -4.000000) " points="4 0 8 8 0 8"></polygon>
            <line x1="19.5" y1="4" x2="8.5" y2="4" id="Line-3" stroke="#000000" stroke-width="2" stroke-linecap="square"></line>
        </g>
    </g>
</svg>